<?xml version="1.0" standalone="no"?>
<!DOCTYPE svg PUBLIC "-//W3C//DTD SVG 20010904//EN"
 "http://www.w3.org/TR/2001/REC-SVG-20010904/DTD/svg10.dtd">
<svg version="1.0" xmlns="http://www.w3.org/2000/svg"
 width="420.000000pt" height="420.000000pt" viewBox="0 0 420.000000 420.000000"
 preserveAspectRatio="xMidYMid meet">
<metadata>
Created by potrace 1.11, written by Peter Selinger 2001-2013
</metadata>
<g transform="translate(0.000000,420.000000) scale(0.100000,-0.100000)"
fill="#000000" stroke="none">
<path d="M0 2100 l0 -2100 2100 0 2100 0 0 2100 0 2100 -2100 0 -2100 0 0
-2100z m3934 1808 c3 -13 6 -833 6 -1823 0 -1388 -3 -1804 -12 -1813 -9 -9
-425 -12 -1812 -12 -991 0 -1811 3 -1824 6 l-22 6 0 1822 c0 1003 3 1826 7
1829 3 4 826 7 1829 7 l1822 0 6 -22z"/>
<path d="M524 3667 c-2 -7 -3 -71 -2 -143 l3 -129 143 -3 143 -3 -3 143 -3
143 -138 3 c-107 2 -139 0 -143 -11z"/>
<path d="M3406 3664 c-9 -23 -7 -247 2 -262 7 -9 43 -12 148 -10 l139 3 0 140
0 140 -141 3 c-123 2 -142 0 -148 -14z"/>
<path d="M1324 3381 c-2 -2 -4 -54 -4 -116 0 -73 -4 -115 -12 -123 -8 -8 -50
-12 -125 -12 l-113 0 0 -380 0 -379 113 -3 112 -3 2 -110 c2 -60 5 -120 8
-132 l5 -23 270 0 270 0 2 -257 3 -258 115 -5 115 -5 3 -139 c2 -105 -1 -141
-10 -148 -7 -4 -61 -8 -120 -8 l-108 0 0 -240 0 -239 118 -3 117 -3 5 -145 5
-145 265 0 265 0 0 270 0 270 -127 3 -128 3 0 113 c0 95 3 115 16 120 9 3 67
6 130 6 l114 0 0 249 c0 137 3 256 6 265 5 14 38 16 264 16 226 0 259 2 264
16 11 28 7 1024 -4 1045 -10 17 -22 19 -135 19 l-125 0 0 115 0 115 -124 0
c-68 0 -131 3 -140 6 -13 5 -16 26 -16 125 l0 119 -646 2 c-355 2 -648 1 -650
-1z m1054 -763 l-3 -263 -135 -5 -135 -5 -3 -122 -3 -123 -124 0 -125 0 0 390
0 390 265 0 265 0 -2 -262z"/>
<path d="M532 792 c-9 -7 -12 -43 -10 -148 l3 -139 140 0 140 0 3 139 c2 105
-1 141 -10 148 -7 4 -67 8 -133 8 -66 0 -126 -4 -133 -8z"/>
<path d="M3412 788 c-17 -17 -17 -259 0 -276 17 -17 259 -17 276 0 17 17 17
259 0 276 -17 17 -259 17 -276 0z"/>
</g>
</svg>
